<?xml version="1.0" encoding="utf-8"?>
<!-- Generator: Adobe Illustrator 23.0.3, SVG Export Plug-In . SVG Version: 6.00 Build 0)  -->
<svg version="1.1" xmlns="http://www.w3.org/2000/svg" xmlns:xlink="http://www.w3.org/1999/xlink" x="0px" y="0px"
	 viewBox="0 0 129.14 129.1" style="enable-background:new 0 0 129.14 129.1;" xml:space="preserve">
<style type="text/css">
	.st2{fill:#E6B723;}
	.st10{fill:#17B2E8;}


</style>
<g id="Layer_1">
</g>
<g id="Layer_2">
	<g>
		<path class="st10" d="M129.14,0v100.62c-1.89-5.24-4.32-10.38-7.49-15.11c-0.7-1.04-11.13-16.34-27.7-26.27
			c-0.37-6.3-1.11-12.61-2.14-18.71C89.35,25.93,84.83,10.06,78.18,0H129.14z"/>
		<path class="st10" d="M45.27,0c-5.28,5.57-10.89,13.36-16.85,23.38C17.67,41.44,9.91,59.73,9.85,59.89
			C5.35,71.11,2.21,83.22,0,94.9V0H45.27z"/>
		<path class="st2" d="M64.87,124.93c-12.27,7.17-31.93,4.76-39.69-4.85c-9.82-12.13-2.06-31.41,3.49-40.25
			c2.21-3.51,10.82-15.27,28.97-19.15c2.69-0.58,5.33-0.84,7.9-0.84c7.07,0,13.68,1.97,19.62,4.93
			C85.9,90.75,80.46,115.85,64.87,124.93z"/>
		<path class="st10" d="M125.43,129.1H75.06c13.39-12.08,19-34.83,19.18-58.79c12.15,8.81,19.78,20.01,19.92,20.21
			C122.01,102.22,124.76,117.46,125.43,129.1z"/>
		<path class="st2" d="M84.55,54.57c-8.56-3.4-18.28-4.93-28.79-2.69c-21.6,4.61-32.04,18.9-34.73,23.17
			c-7.23,11.5-16.01,35.28-3.02,51.35c0.77,0.95,1.61,1.84,2.5,2.7H4.56c1.47-18.3,4.84-43.88,13.66-65.85
			c0.82-2.06,8.46-19.31,17.96-35.27C50.24,4.34,58.4,0.41,61.96,0h1.29c0.1,0.03,0.21,0.04,0.28,0.05
			c6.1,1.2,14.98,15.81,19.4,41.97C83.62,46.1,84.16,50.31,84.55,54.57z"/>
	</g>
</g>
</svg>
